<?xml version="1.0" standalone="no"?>
<!DOCTYPE svg PUBLIC "-//W3C//DTD SVG 20010904//EN"
 "http://www.w3.org/TR/2001/REC-SVG-20010904/DTD/svg10.dtd">
<svg version="1.0" xmlns="http://www.w3.org/2000/svg"
 width="450.000000pt" height="266.000000pt" viewBox="0 0 450.000000 266.000000"
 preserveAspectRatio="xMidYMid meet">

<g transform="translate(0.000000,266.000000) scale(0.100000,-0.100000)"
fill="#000000" stroke="none">
<path d="M2050 1831 c0 -10 164 -164 180 -169 12 -4 174 145 178 164 3 11 -30
14 -177 14 -104 0 -181 -4 -181 -9z"/>
<path d="M3095 1790 c-165 -26 -257 -92 -240 -169 32 -149 535 -205 755 -85
206 112 37 249 -320 259 -74 2 -162 0 -195 -5z m325 -44 c80 -20 112 -34 143
-64 141 -135 -305 -241 -533 -127 -111 56 -78 156 62 190 71 17 259 18 328 1z"/>
<path d="M410 1757 c-20 -17 -100 -86 -178 -151 -78 -65 -139 -122 -137 -126
12 -19 102 4 144 37 l44 33 180 0 180 0 41 -33 c29 -25 54 -35 89 -39 26 -3
49 -2 52 2 3 4 -18 27 -47 51 -28 24 -108 92 -177 151 -69 59 -133 107 -141
108 -8 0 -31 -15 -50 -33z m114 -104 c31 -26 56 -53 56 -60 0 -10 -29 -13
-120 -13 -85 0 -120 3 -120 12 0 14 100 107 116 108 7 0 37 -21 68 -47z"/>
<path d="M1047 1773 c-4 -3 -7 -71 -7 -150 l0 -144 53 3 52 3 1 40 c3 77 2 75
36 75 21 0 70 -21 138 -59 101 -56 191 -83 205 -62 3 5 -33 30 -80 56 -48 26
-84 52 -83 57 2 6 26 18 54 25 62 18 99 52 91 85 -14 54 -112 78 -317 78 -75
0 -140 -3 -143 -7z m345 -50 c48 -48 -17 -95 -122 -89 -25 1 -62 3 -82 4 l-38
2 0 49 c0 30 5 52 13 55 6 3 56 4 110 3 84 -2 100 -6 119 -24z"/>
<path d="M1881 1638 c-45 -78 -81 -145 -81 -150 0 -4 22 -8 49 -8 l48 0 38 85
c21 47 44 90 51 96 9 7 41 -16 123 -91 61 -55 116 -100 122 -100 14 0 41 21
145 116 47 44 90 81 95 82 5 2 30 -39 55 -92 l45 -96 50 0 c28 0 49 4 47 9
-10 30 -164 291 -171 291 -5 0 -63 -51 -129 -112 -66 -62 -126 -114 -134 -116
-8 -2 -56 36 -106 85 -145 140 -149 143 -158 143 -5 0 -45 -64 -89 -142z"/>
<path d="M3927 1773 c-4 -3 -7 -71 -7 -150 l0 -143 50 0 49 0 3 58 c3 56 4 57
34 60 20 2 49 -7 80 -24 27 -15 76 -41 109 -59 59 -33 156 -51 154 -30 -1 6
-36 28 -78 51 -42 23 -76 47 -76 54 0 7 19 18 43 25 65 20 92 41 92 74 0 40
-31 62 -108 77 -69 14 -334 19 -345 7z m312 -34 c59 -21 63 -67 9 -90 -31 -13
-200 -15 -219 -4 -13 9 -11 79 3 93 15 15 164 16 207 1z"/>
<path d="M2017 1423 c-20 -19 12 -23 213 -23 189 0 220 2 220 15 0 13 -30 15
-213 15 -118 0 -217 -3 -220 -7z"/>
<path d="M2208 1194 c-51 -27 -29 -75 43 -94 43 -12 50 -33 17 -54 -13 -8 -24
-5 -48 13 -34 24 -51 21 -34 -7 14 -21 79 -28 111 -11 50 27 33 81 -31 95 -40
8 -56 22 -49 40 6 17 44 19 60 3 14 -14 35 -8 25 7 -12 19 -65 23 -94 8z"/>
<path d="M1476 1183 c9 -19 12 -109 4 -133 -3 -10 3 -16 20 -18 25 -3 25 -3
25 83 l0 85 -29 0 c-23 0 -27 -3 -20 -17z"/>
<path d="M1580 1191 c0 -5 14 -21 31 -34 17 -13 43 -46 58 -73 14 -27 31 -49
36 -49 6 0 11 21 13 46 3 40 0 47 -15 45 -10 0 -27 15 -42 37 -19 28 -31 37
-53 37 -15 0 -28 -4 -28 -9z"/>
<path d="M1702 1184 c4 -21 22 -23 26 -1 2 10 -3 17 -13 17 -10 0 -15 -6 -13
-16z"/>
<path d="M1786 1118 l1 -83 44 -2 c24 -2 57 3 72 9 51 20 63 93 22 133 -20 21
-34 25 -82 25 l-58 0 1 -82z m104 52 c38 -38 13 -125 -33 -118 -19 3 -22 10
-25 57 -2 29 -1 60 2 67 8 20 33 17 56 -6z"/>
<path d="M1997 1128 c6 -81 18 -98 68 -98 41 0 65 27 65 73 0 47 -16 56 -17
10 0 -20 -9 -43 -20 -54 -17 -18 -20 -18 -42 -3 -22 16 -23 22 -18 80 5 62 4
64 -19 64 -22 0 -23 -2 -17 -72z"/>
<path d="M2102 1183 c2 -10 10 -18 18 -18 8 0 16 8 18 18 2 12 -3 17 -18 17
-15 0 -20 -5 -18 -17z"/>
<path d="M2357 1194 c-4 -4 -7 -13 -7 -21 0 -11 5 -10 25 3 23 15 24 15 31
-10 6 -24 2 -83 -7 -116 -3 -11 4 -15 26 -15 22 0 29 4 25 15 -2 8 -4 40 -5
70 0 54 0 55 28 53 18 -1 27 2 24 10 -4 13 -128 23 -140 11z"/>
<path d="M2545 1115 c0 -82 0 -85 23 -85 21 0 22 3 16 35 -5 31 -4 35 15 35
11 0 21 -4 21 -9 0 -15 49 -61 65 -61 21 0 19 22 -5 43 -24 20 -26 40 -5 57
21 17 19 47 -4 60 -11 5 -44 10 -73 10 l-53 0 0 -85z m95 60 c26 -31 -18 -71
-47 -42 -19 19 -8 57 16 57 10 0 24 -7 31 -15z"/>
<path d="M2747 1118 c2 -78 3 -83 23 -83 21 0 22 5 24 83 1 81 1 82 -24 82
-25 0 -25 -1 -23 -82z"/>
<path d="M2856 1120 c1 -45 4 -83 7 -87 3 -3 18 -2 34 1 15 4 22 10 16 14 -11
7 -16 26 -14 50 1 8 10 12 23 10 15 -2 24 3 26 15 3 12 -3 17 -21 17 -33 0
-39 10 -22 37 15 22 15 23 -17 23 l-33 0 1 -80z"/>
<path d="M2959 1179 c26 -21 37 -19 28 6 -4 8 -17 15 -29 15 l-23 -1 24 -20z"/>
<path d="M2963 1061 c-28 -23 -29 -31 -5 -31 21 0 42 18 42 37 0 18 -11 16
-37 -6z"/>
<path d="M1585 1061 c-8 -15 3 -31 21 -31 9 0 14 7 12 17 -4 20 -24 28 -33 14z"/>
</g>
</svg>
